<?xml version="1.0" standalone="no"?>
<!DOCTYPE svg PUBLIC "-//W3C//DTD SVG 20010904//EN"
 "http://www.w3.org/TR/2001/REC-SVG-20010904/DTD/svg10.dtd">
<svg version="1.0" xmlns="http://www.w3.org/2000/svg"
 width="640.000000pt" height="400.000000pt" viewBox="0 0 640.000000 400.000000"
 preserveAspectRatio="xMidYMid meet">
<metadata>
Created by potrace 1.13, written by Peter Selinger 2001-2015
</metadata>
<g transform="translate(0.000000,400.000000) scale(0.100000,-0.100000)"
fill="#000000" stroke="none">
<path d="M2475 3216 c-27 -12 -70 -33 -95 -48 -25 -15 -67 -36 -95 -48 -133
-56 -334 -174 -425 -250 -25 -21 -61 -46 -81 -56 -113 -58 -269 -147 -269
-153 0 -15 147 -138 177 -149 38 -13 70 -36 206 -147 123 -100 221 -172 347
-255 21 -14 63 -42 94 -64 45 -30 63 -37 85 -33 47 10 157 66 203 103 24 19
51 42 61 50 9 8 21 14 27 14 5 0 38 22 73 49 35 27 86 60 113 74 27 14 78 47
114 73 74 55 191 134 197 134 2 0 20 12 39 26 36 28 46 64 17 64 -10 0 -42 18
-71 40 -29 22 -55 40 -59 40 -21 0 -392 365 -495 488 -69 81 -79 84 -163 48z
m123 -93 c63 -76 343 -359 408 -415 51 -43 70 -58 133 -100 19 -13 36 -28 38
-34 2 -7 -24 -31 -59 -54 -35 -24 -94 -66 -133 -95 -38 -29 -90 -62 -115 -75
-25 -12 -71 -42 -103 -66 -33 -24 -63 -44 -68 -44 -4 0 -33 -20 -62 -44 -30
-24 -69 -52 -87 -63 -79 -44 -116 -62 -132 -62 -17 -1 -65 30 -191 122 -28 20
-55 37 -60 37 -5 0 -38 23 -74 52 -36 28 -78 61 -93 72 -16 12 -63 50 -105 85
-42 36 -84 69 -94 75 -119 72 -191 125 -191 139 0 7 17 20 38 29 74 34 192
104 264 159 120 90 272 178 408 235 36 15 77 36 92 46 14 10 32 18 40 18 7 1
29 9 48 20 19 11 38 19 42 20 4 0 29 -26 56 -57z"/>
<path d="M1385 2381 c-3 -5 0 -40 6 -78 15 -84 -2 -647 -25 -848 -9 -71 -20
-191 -25 -265 -6 -74 -15 -164 -21 -200 -5 -36 -10 -70 -10 -76 0 -15 35 -25
47 -13 11 11 145 -38 258 -94 50 -24 101 -48 115 -52 14 -4 36 -16 49 -26 13
-11 29 -19 36 -19 13 0 155 -52 247 -90 26 -11 58 -20 72 -20 15 0 35 -5 45
-12 10 -6 25 -9 34 -5 12 4 16 40 20 209 3 112 12 286 21 388 9 102 16 276 16
388 0 198 0 203 -25 242 -37 58 -194 211 -272 264 -37 25 -94 64 -125 85 -52
36 -178 104 -268 146 -19 8 -60 31 -90 50 -53 34 -93 44 -105 26z m162 -118
c48 -25 117 -61 153 -80 69 -35 206 -122 258 -163 51 -40 204 -189 229 -223
22 -30 23 -38 23 -241 0 -116 -7 -294 -16 -396 -8 -102 -18 -260 -21 -352 l-6
-166 -46 20 c-25 11 -75 29 -111 40 -97 30 -251 95 -320 135 -14 8 -41 21 -60
29 -19 9 -53 24 -75 34 -22 10 -71 28 -109 41 l-69 23 8 65 c3 36 11 120 16
186 5 66 15 181 24 255 18 161 37 582 33 733 -2 59 -2 107 -1 107 1 0 41 -21
90 -47z"/>
<path d="M1503 1604 c-3 -9 2 -46 11 -84 20 -84 20 -83 -4 -75 -29 9 -68 -22
-76 -60 -12 -65 63 -290 119 -356 63 -72 144 -140 161 -133 18 7 20 27 6 55
-15 27 -60 244 -60 288 0 58 -52 211 -72 211 -4 0 -8 15 -8 33 0 37 -44 137
-60 137 -6 0 -13 -7 -17 -16z m84 -295 c18 -82 43 -233 43 -260 -1 -22 -3 -21
-32 15 -18 21 -40 62 -50 90 -27 74 -57 188 -58 212 0 21 2 21 42 9 41 -12 43
-15 55 -66z"/>
<path d="M3160 2198 c-63 -33 -155 -88 -205 -122 -49 -34 -110 -74 -135 -89
-25 -14 -111 -91 -192 -170 l-148 -143 0 -184 c0 -103 -7 -241 -15 -310 -18
-144 -31 -518 -21 -573 5 -28 12 -37 26 -37 27 0 28 11 34 270 2 124 12 288
21 364 11 94 16 195 13 308 -2 132 0 168 10 168 7 0 30 17 50 38 113 113 215
202 279 242 39 25 102 66 140 91 88 60 223 132 231 124 13 -12 14 -223 3 -360
-28 -338 -33 -466 -21 -539 6 -39 16 -79 21 -89 8 -15 -1 -31 -49 -85 -150
-169 -309 -289 -537 -406 -99 -50 -192 -133 -182 -160 11 -28 38 -18 92 33 30
28 90 69 143 95 200 100 357 219 495 374 38 43 75 82 83 89 14 10 14 23 -1
118 -15 92 -15 130 -6 288 6 100 16 236 22 302 11 120 7 374 -6 408 -4 9 -12
17 -19 16 -6 0 -63 -27 -126 -61z"/>
</g>
</svg>
